<svg width="100%" height="104" viewBox="0 0 104 104" fill="none" xmlns="http://www.w3.org/2000/svg">
<rect width="100%" height="104" rx="36" fill="url(#paint0_linear_57_1154)"/>
<circle cx="66.625" cy="43.875" r="4.0625" fill="#D8ECAE"/>
<circle cx="67.6406" cy="29.6562" r="4.0625" fill="#D8CFFC"/>
<circle cx="74.75" cy="56.0625" r="4.0625" fill="white"/>
<circle cx="74.75" cy="70.2812" r="4.0625" fill="#161521"/>
<path d="M26 43.875H44.85C56.876 43.875 66.625 53.624 66.625 65.65V67.1125C66.625 78.3308 57.5308 87.425 46.3125 87.425C35.0942 87.425 26 78.3308 26 67.1125V43.875Z" fill="white"/>
<path d="M26 43.875H44.9583C56.9245 43.875 66.625 53.5755 66.625 65.5417V66.8958C66.625 78.1141 57.5308 87.2083 46.3125 87.2083C35.0942 87.2083 26 78.1141 26 66.8958V43.875Z" fill="#A986FF"/>
<path d="M26 43.875H46.3125C57.5308 43.875 66.625 52.9692 66.625 64.1875C66.625 75.4058 57.5308 84.5 46.3125 84.5C35.0942 84.5 26 75.4058 26 64.1875V43.875Z" fill="white"/>
<circle cx="46.3125" cy="64.1875" r="6.09375" fill="#8567F7"/>
<path opacity="0.64" d="M26 35.75C26 26.7754 33.2754 19.5 42.25 19.5C51.2246 19.5 58.5 26.7754 58.5 35.75C58.5 44.7246 51.2246 52 42.25 52H26V35.75Z" fill="white"/>
<path opacity="0.64" fill-rule="evenodd" clip-rule="evenodd" d="M26 43.875V52H42.25C47.4202 52 52.0264 49.5855 55.0026 45.8225C52.368 44.5736 49.4218 43.875 46.3125 43.875H26Z" fill="#D7CDFC"/>
<defs>
<linearGradient id="paint0_linear_57_1154" x1="51.8858" y1="0" x2="51.8858" y2="55.9334" gradientUnits="userSpaceOnUse">
<stop stop-color="#A791F6"/>
<stop offset="1" stop-color="#8567F7"/>
</linearGradient>
</defs>
</svg>
