<svg width="18" height="18" viewBox="0 0 18 18" fill="none" xmlns="http://www.w3.org/2000/svg">
<path d="M14.4177 3.58184C14.3473 3.51161 14.3071 3.43135 14.3071 3.34105C14.3071 3.25075 14.3473 3.17049 14.4177 3.10025C14.5686 2.96982 14.79 2.96982 14.9308 3.10025C15.0013 3.17049 15.0415 3.25075 15.0415 3.34105C15.0415 3.43135 15.0013 3.51161 14.9308 3.58184C14.8604 3.64204 14.7598 3.67214 14.6693 3.67214C14.5787 3.69221 14.4882 3.65208 14.4177 3.58184ZM13.5122 4.535C13.4518 4.46476 13.4217 4.3845 13.4217 4.2942C13.4217 4.2039 13.4619 4.12364 13.5122 4.0534C13.643 3.92297 13.8644 3.92297 13.9952 4.0534C14.0555 4.12364 14.0857 4.2039 14.0857 4.2942C14.0857 4.3845 14.0455 4.46476 13.9952 4.535C13.9247 4.59519 13.8442 4.62529 13.7537 4.62529C13.6631 4.62529 13.5826 4.59519 13.5122 4.535ZM12.5262 5.47811C12.4659 5.41792 12.4357 5.32762 12.4357 5.23732C12.4357 5.14702 12.4759 5.06675 12.5262 4.99652C12.657 4.86609 12.8784 4.86609 13.0092 4.99652C13.0695 5.05672 13.0997 5.14702 13.0997 5.23732C13.0997 5.32762 13.0595 5.40788 13.0092 5.47811C12.9387 5.54835 12.8582 5.56841 12.7677 5.56841C12.6771 5.56841 12.5866 5.53831 12.5262 5.47811ZM11.5905 6.42124C11.5201 6.36104 11.4799 6.27074 11.4799 6.18044C11.4799 6.09014 11.5201 6.00987 11.5905 5.93964C11.7414 5.80921 11.9628 5.80921 12.1036 5.93964C12.1741 5.99984 12.2143 6.09014 12.2143 6.18044C12.2143 6.27074 12.1741 6.36104 12.1036 6.42124C12.0332 6.49147 11.9326 6.51153 11.8421 6.51153C11.7515 6.51153 11.661 6.49147 11.5905 6.42124ZM10.685 7.35432C10.6146 7.29412 10.5945 7.20382 10.5945 7.11352C10.5945 7.02322 10.6347 6.94296 10.685 6.87273C10.8158 6.7423 11.0372 6.7423 11.168 6.87273C11.2384 6.93293 11.2585 7.02322 11.2585 7.11352C11.2585 7.20382 11.2183 7.29412 11.168 7.35432C11.1076 7.42455 11.017 7.44462 10.9265 7.44462C10.8259 7.46468 10.7353 7.43458 10.685 7.35432ZM9.58834 8.05664C9.58834 7.96634 9.62859 7.88608 9.67889 7.81585C9.80969 7.68541 10.031 7.68541 10.1618 7.81585C10.2323 7.88608 10.2524 7.96634 10.2524 8.05664C10.2524 8.14694 10.2121 8.22721 10.1618 8.29744C10.1015 8.35764 10.0109 8.38774 9.92036 8.38774C9.82981 8.38774 9.74932 8.3476 9.67889 8.29744C9.62859 8.24727 9.58834 8.14694 9.58834 8.05664ZM7.83769 10.1435C7.77732 10.0833 7.74714 9.99304 7.74714 9.90275C7.74714 9.81245 7.78738 9.73218 7.83769 9.66195C7.96849 9.53152 8.18983 9.53152 8.32063 9.66195C8.39106 9.73218 8.41118 9.81245 8.41118 9.90275C8.41118 9.99304 8.37093 10.0733 8.32063 10.1435C8.26026 10.2138 8.16971 10.2338 8.07916 10.2338C7.97855 10.2539 7.90812 10.2138 7.83769 10.1435ZM6.85169 11.0867C6.78126 11.0265 6.74102 10.9362 6.74102 10.8459C6.74102 10.7556 6.78126 10.6753 6.85169 10.6051C7.00261 10.4746 7.22396 10.4746 7.36481 10.6051C7.43524 10.6753 7.47549 10.7556 7.47549 10.8459C7.47549 10.9362 7.43524 11.0164 7.36481 11.0867C7.29438 11.1569 7.19377 11.177 7.10322 11.177C7.02273 11.197 6.93218 11.1569 6.85169 11.0867ZM5.94618 12.0398C5.88581 11.9796 5.85563 11.8893 5.85563 11.799C5.85563 11.7087 5.89587 11.6184 5.94618 11.5582C6.07698 11.4278 6.29832 11.4278 6.42912 11.5582C6.48949 11.6184 6.51967 11.7087 6.51967 11.799C6.51967 11.8893 6.47942 11.9696 6.42912 12.0398C6.35869 12.11 6.2782 12.1301 6.18765 12.1301C6.0971 12.1301 6.02667 12.1 5.94618 12.0398ZM5.01049 12.9829C4.94006 12.9227 4.91994 12.8324 4.91994 12.7421C4.91994 12.6518 4.96018 12.5716 5.01049 12.5013C5.14128 12.3709 5.36263 12.3709 5.49343 12.5013C5.55379 12.5716 5.58398 12.6518 5.58398 12.7421C5.58398 12.8324 5.54373 12.9227 5.49343 12.9829C5.423 13.0532 5.34251 13.0732 5.25196 13.0732C5.15134 13.0732 5.06079 13.0532 5.01049 12.9829ZM4.02449 13.9261C3.95406 13.8659 3.91381 13.7756 3.91381 13.6853C3.91381 13.595 3.95406 13.5147 4.02449 13.4445C4.17541 13.314 4.39675 13.314 4.52755 13.4445C4.59798 13.5147 4.63822 13.595 4.63822 13.6853C4.63822 13.7756 4.59798 13.8659 4.52755 13.9261C4.45712 13.9862 4.35651 14.0163 4.26596 14.0163C4.17541 14.0163 4.08486 13.9963 4.02449 13.9261ZM3.09886 14.8591C3.02843 14.7889 3.0083 14.7086 3.0083 14.6183C3.0083 14.528 3.04855 14.4478 3.09886 14.3775C3.22965 14.2471 3.451 14.2471 3.58179 14.3775C3.65222 14.4478 3.67234 14.528 3.67234 14.6183C3.67234 14.7086 3.6321 14.7889 3.58179 14.8591C3.52143 14.9193 3.43088 14.9494 3.34032 14.9494C3.2699 14.9695 3.17935 14.9394 3.09886 14.8591ZM3.58179 3.58184C3.64216 3.51161 3.67234 3.43135 3.67234 3.34105C3.67234 3.25075 3.6321 3.17049 3.58179 3.10025C3.451 2.96982 3.22965 2.96982 3.09886 3.10025C3.02843 3.17049 3.0083 3.25075 3.0083 3.34105C3.0083 3.43135 3.04855 3.51161 3.09886 3.58184C3.15922 3.64204 3.24977 3.67214 3.34032 3.67214C3.43088 3.69221 3.52143 3.65208 3.58179 3.58184ZM4.52755 4.535C4.59798 4.46476 4.63822 4.3845 4.63822 4.2942C4.63822 4.2039 4.59798 4.12364 4.52755 4.0534C4.37663 3.92297 4.15528 3.92297 4.01443 4.0534C3.944 4.12364 3.90375 4.2039 3.90375 4.2942C3.90375 4.3845 3.944 4.46476 4.01443 4.535C4.08486 4.59519 4.18547 4.62529 4.27602 4.62529C4.35651 4.62529 4.44706 4.59519 4.52755 4.535ZM5.48336 5.47811C5.54373 5.41792 5.57392 5.32762 5.57392 5.23732C5.57392 5.14702 5.53367 5.06675 5.48336 4.99652C5.35257 4.86609 5.13122 4.86609 5.00043 4.99652C4.94006 5.05672 4.90988 5.14702 4.90988 5.23732C4.90988 5.32762 4.95012 5.40788 5.00043 5.47811C5.07085 5.54835 5.15134 5.56841 5.2419 5.56841C5.32238 5.56841 5.41294 5.53831 5.48336 5.47811ZM6.42912 6.42124C6.48949 6.36104 6.51967 6.27074 6.51967 6.18044C6.51967 6.09014 6.47942 6.00987 6.42912 5.93964C6.29832 5.80921 6.07698 5.80921 5.94618 5.93964C5.88581 5.99984 5.85563 6.09014 5.85563 6.18044C5.85563 6.27074 5.89587 6.36104 5.94618 6.42124C6.01661 6.49147 6.0971 6.51153 6.18765 6.51153C6.25808 6.51153 6.35869 6.49147 6.42912 6.42124ZM7.35475 7.35432C7.42518 7.29412 7.46542 7.20382 7.46542 7.11352C7.46542 7.02322 7.42518 6.94296 7.35475 6.87273C7.22396 6.7423 6.98249 6.7423 6.85169 6.87273C6.78126 6.93293 6.74102 7.02322 6.74102 7.11352C6.74102 7.20382 6.78126 7.29412 6.85169 7.35432C6.92212 7.42455 7.02273 7.44462 7.11328 7.44462C7.20383 7.46468 7.29438 7.43458 7.35475 7.35432ZM8.41118 8.05664C8.41118 7.96634 8.37093 7.88608 8.32063 7.81585C8.18983 7.68541 7.96849 7.68541 7.83769 7.81585C7.76726 7.88608 7.74714 7.96634 7.74714 8.05664C7.74714 8.14694 7.78738 8.22721 7.83769 8.29744C7.89806 8.35764 7.98861 8.38774 8.07916 8.38774C8.16971 8.38774 8.2502 8.3476 8.32063 8.29744C8.39106 8.24727 8.41118 8.14694 8.41118 8.05664ZM9.25632 9.26062C9.32675 9.19039 9.34687 9.11013 9.34687 9.01983C9.34687 8.92953 9.30663 8.84926 9.25632 8.77903C9.12553 8.6486 8.90418 8.6486 8.77338 8.77903C8.70295 8.84926 8.68283 8.92953 8.68283 9.01983C8.68283 9.11013 8.72308 9.19039 8.77338 9.26062C8.83375 9.32082 8.9243 9.35092 9.01485 9.35092C9.1054 9.35092 9.20602 9.31079 9.25632 9.26062ZM10.2021 10.1435C10.2725 10.0833 10.3127 9.99304 10.3127 9.90275C10.3127 9.81245 10.2725 9.73218 10.2021 9.66195C10.0512 9.53152 9.82981 9.53152 9.69902 9.66195C9.62859 9.73218 9.58834 9.81245 9.58834 9.90275C9.58834 9.99304 9.62859 10.0733 9.69902 10.1435C9.76944 10.2138 9.87006 10.2338 9.96061 10.2338C10.031 10.2539 10.1316 10.2138 10.2021 10.1435ZM11.1579 11.0867C11.2183 11.0265 11.2484 10.9362 11.2484 10.8459C11.2484 10.7556 11.2082 10.6753 11.1579 10.6051C11.0271 10.4746 10.8057 10.4746 10.675 10.6051C10.6146 10.6753 10.5844 10.7556 10.5844 10.8459C10.5844 10.9362 10.6246 11.0164 10.675 11.0867C10.7454 11.1569 10.8259 11.177 10.9164 11.177C10.9969 11.197 11.0875 11.1569 11.1579 11.0867ZM12.1036 12.0398C12.164 11.9796 12.1942 11.8893 12.1942 11.799C12.1942 11.7087 12.154 11.6184 12.1036 11.5582C11.9729 11.4278 11.7515 11.4278 11.6207 11.5582C11.5603 11.6184 11.5302 11.7087 11.5302 11.799C11.5302 11.8893 11.5704 11.9696 11.6207 12.0398C11.6911 12.11 11.7716 12.1301 11.8622 12.1301C11.9527 12.1301 12.0332 12.1 12.1036 12.0398ZM12.989 12.9829C13.0595 12.9227 13.0796 12.8324 13.0796 12.7421C13.0796 12.6518 13.0393 12.5716 12.989 12.5013C12.8582 12.3709 12.6369 12.3709 12.5061 12.5013C12.4457 12.5716 12.4155 12.6518 12.4155 12.7421C12.4155 12.8324 12.4558 12.9227 12.5061 12.9829C12.5765 13.0532 12.657 13.0732 12.7476 13.0732C12.8381 13.0732 12.9387 13.0532 12.989 12.9829ZM13.9952 13.9261C14.0656 13.8659 14.0857 13.7756 14.0857 13.6853C14.0857 13.595 14.0455 13.5147 13.9952 13.4445C13.8644 13.314 13.643 13.314 13.5122 13.4445C13.4418 13.5147 13.4217 13.595 13.4217 13.6853C13.4217 13.7756 13.4619 13.8659 13.5122 13.9261C13.5726 13.9862 13.6631 14.0163 13.7537 14.0163C13.8442 14.0163 13.9348 13.9963 13.9952 13.9261ZM14.9308 14.8591C15.0013 14.7889 15.0415 14.7086 15.0415 14.6183C15.0415 14.528 15.0013 14.4478 14.9308 14.3775C14.7799 14.2471 14.5586 14.2471 14.4278 14.3775C14.3574 14.4478 14.3171 14.528 14.3171 14.6183C14.3171 14.7086 14.3574 14.7889 14.4278 14.8591C14.4982 14.9193 14.5988 14.9494 14.6894 14.9494C14.7699 14.9695 14.8604 14.9394 14.9308 14.8591ZM5.81538 3.83267C6.78126 3.21062 7.82763 2.90962 8.99473 2.88956C10.1417 2.88956 11.1981 3.20058 12.1741 3.83267L14.2064 1.80597C12.6168 0.612024 10.8963 0 8.99473 0C7.09316 0 5.35257 0.612024 3.80314 1.80597L5.81538 3.83267ZM3.78302 12.1502C3.1391 11.177 2.81714 10.1235 2.81714 8.99976C2.81714 7.85598 3.12904 6.80249 3.78302 5.84934L1.77077 3.84271C0.583551 5.38782 0 7.10349 0 9.01983C0 10.896 0.593612 12.6318 1.7909 14.1969L3.78302 12.1502ZM12.1841 14.1668C11.2183 14.809 10.1719 15.1401 9.02491 15.1601C7.85781 15.1601 6.79132 14.8491 5.82545 14.1869L3.79308 16.1936C5.36263 17.4076 7.10322 18.0196 9.02491 17.9995C10.9265 17.9795 12.647 17.3775 14.2064 16.1936L12.1841 14.1668ZM14.1561 5.82928C14.8001 6.80249 15.1321 7.87604 15.122 9.03989C15.1019 10.1636 14.79 11.197 14.1561 12.1401L16.1885 14.1468C17.3858 12.6017 17.9995 10.886 17.9995 8.99976C18.0196 7.08342 17.4059 5.34768 16.1885 3.78251L14.1561 5.82928ZM16.2791 14.7889C17.0538 14.7889 17.7077 15.411 17.7077 16.2136C17.7077 16.9862 17.084 17.6383 16.2791 17.6383C15.5043 17.6383 14.8504 17.0163 14.8504 16.2136C14.8604 15.421 15.4842 14.7889 16.2791 14.7889ZM1.75065 14.7889C2.52537 14.7889 3.15922 15.411 3.15922 16.2136C3.15922 16.9862 2.53543 17.6383 1.75065 17.6383C0.965877 17.6383 0.342081 17.0163 0.342081 16.2136C0.342081 15.421 0.975938 14.7889 1.75065 14.7889ZM16.2992 0.311029C17.0739 0.311029 17.7077 0.933086 17.7077 1.73574C17.7077 2.52836 17.084 3.16045 16.2992 3.16045C15.5144 3.16045 14.8906 2.53839 14.8906 1.73574C14.9007 0.943119 15.5245 0.311029 16.2992 0.311029ZM1.73053 0.311029C2.50524 0.311029 3.15922 0.933086 3.15922 1.71567C3.15922 2.48823 2.53543 3.12032 1.73053 3.12032C0.955816 3.12032 0.301837 2.49826 0.301837 1.71567C0.311898 0.943119 0.935693 0.311029 1.73053 0.311029Z" fill="white"/>
</svg>
