<svg width="25" height="22" viewBox="0 0 25 22" fill="none" xmlns="http://www.w3.org/2000/svg">
<path d="M24.8713 17.3454L20.7443 21.7004C20.6546 21.795 20.546 21.8704 20.4254 21.9219C20.3048 21.9735 20.1746 22.0001 20.0431 22H0.479116C0.385765 22 0.294448 21.9732 0.216387 21.9228C0.138324 21.8724 0.0769158 21.8007 0.0397069 21.7165C0.00249809 21.6322 -0.00889062 21.5392 0.00694015 21.4486C0.0227709 21.3581 0.0651314 21.2741 0.128817 21.2069L4.25894 16.852C4.34842 16.7576 4.45661 16.6824 4.57683 16.6308C4.69708 16.5793 4.82678 16.5526 4.95795 16.5524H24.5209C24.6142 16.5524 24.7055 16.5792 24.7837 16.6296C24.8616 16.68 24.923 16.7517 24.9604 16.8359C24.9975 16.9201 25.0089 17.0132 24.9931 17.1038C24.9772 17.1943 24.9349 17.2783 24.8713 17.3454ZM20.7443 8.5758C20.6546 8.4812 20.546 8.40578 20.4254 8.35423C20.3048 8.3027 20.1746 8.27613 20.0431 8.2762H0.479116C0.385765 8.2762 0.294448 8.30303 0.216387 8.3534C0.138324 8.40378 0.0769158 8.47548 0.0397069 8.5597C0.00249809 8.64395 -0.00889062 8.73705 0.00694015 8.82757C0.0227709 8.91807 0.0651314 9.00208 0.128817 9.06925L4.25894 13.4242C4.34842 13.5186 4.45661 13.5938 4.57683 13.6454C4.69708 13.6969 4.82678 13.7236 4.95795 13.7238H24.5209C24.6142 13.7238 24.7055 13.697 24.7837 13.6466C24.8616 13.5962 24.923 13.5245 24.9604 13.4403C24.9975 13.356 25.0089 13.263 24.9931 13.1724C24.9772 13.0819 24.9349 12.9979 24.8713 12.9307L20.7443 8.5758ZM0.479116 5.44763H20.0431C20.1746 5.44768 20.3048 5.42113 20.4254 5.36958C20.546 5.31803 20.6546 5.2426 20.7443 5.148L24.8713 0.793047C24.9349 0.725892 24.9772 0.641895 24.9931 0.551375C25.0089 0.460855 24.9975 0.367758 24.9604 0.28352C24.923 0.199283 24.8616 0.127574 24.7837 0.0772057C24.7055 0.0268372 24.6142 3.10185e-06 24.5209 0H4.95795C4.82678 0.000219599 4.69708 0.0269247 4.57683 0.078462C4.45661 0.129999 4.34842 0.205272 4.25894 0.29962L0.129882 4.65457C0.0662577 4.72165 0.0239158 4.80558 0.00804913 4.89598C-0.00781755 4.9864 0.00348079 5.07942 0.0405584 5.16362C0.0776361 5.24782 0.138881 5.31953 0.216783 5.36998C0.294686 5.42043 0.385856 5.4474 0.479116 5.44763Z" fill="url(#paint0_linear_1128_30)"/>
<defs>
<linearGradient id="paint0_linear_1128_30" x1="2.11029" y1="22.5243" x2="22.2553" y2="-0.555719" gradientUnits="userSpaceOnUse">
<stop offset="0.08" stop-color="#9945FF"/>
<stop offset="0.3" stop-color="#8752F3"/>
<stop offset="0.5" stop-color="#5497D5"/>
<stop offset="0.6" stop-color="#43B4CA"/>
<stop offset="0.72" stop-color="#28E0B9"/>
<stop offset="0.97" stop-color="#19FB9B"/>
</linearGradient>
</defs>
</svg>
